<?xml version="1.0" encoding="utf-8" standalone="no"?>
<!DOCTYPE svg PUBLIC "-//W3C//DTD SVG 1.1//EN"
  "http://www.w3.org/Graphics/SVG/1.1/DTD/svg11.dtd">
<svg xmlns:xlink="http://www.w3.org/1999/xlink" width="458.115625pt" height="152.845194pt" viewBox="0 0 458.115625 152.845194" xmlns="http://www.w3.org/2000/svg" version="1.1">
 <metadata>
  <rdf:RDF xmlns:dc="http://purl.org/dc/elements/1.1/" xmlns:cc="http://creativecommons.org/ns#" xmlns:rdf="http://www.w3.org/1999/02/22-rdf-syntax-ns#">
   <cc:Work>
    <dc:type rdf:resource="http://purl.org/dc/dcmitype/StillImage"/>
    <dc:date>2025-08-09T22:49:40.627813</dc:date>
    <dc:format>image/svg+xml</dc:format>
    <dc:creator>
     <cc:Agent>
      <dc:title>Matplotlib v3.10.5, https://matplotlib.org/</dc:title>
     </cc:Agent>
    </dc:creator>
   </cc:Work>
  </rdf:RDF>
 </metadata>
 <defs>
  <style type="text/css">*{stroke-linejoin: round; stroke-linecap: butt}</style>
 </defs>
 <g id="figure_1">
  <g id="patch_1">
   <path d="M 0 152.845194 
L 458.115625 152.845194 
L 458.115625 0 
L 0 0 
z
" style="fill: #ffffff"/>
  </g>
  <g id="axes_1">
   <g id="patch_2">
    <path d="M 62.828103 130.451017 
L 395.287522 130.451017 
L 395.287522 21.541897 
L 62.828103 21.541897 
L 62.828103 130.451017 
z
" clip-path="url(#pd068655192)" style="fill: none; stroke: #000000; stroke-width: 2; stroke-linejoin: miter"/>
   </g>
   <g id="patch_3">
    <path d="M 62.828103 87.460575 
L 395.287522 87.460575 
L 395.287522 64.532339 
L 62.828103 64.532339 
z
" clip-path="url(#pd068655192)" style="fill: #e6e6e6; opacity: 0.9; stroke: #808080; stroke-width: 1.2; stroke-linejoin: miter"/>
   </g>
   <g id="patch_4">
    <path d="M 66.706796 41.747405 
L 114.359313 41.747405 
L 114.359313 22.401706 
L 66.706796 22.401706 
z
" clip-path="url(#pd068655192)" style="fill: #dff0d8; stroke: #4caf50; stroke-linejoin: miter"/>
   </g>
   <g id="patch_5">
    <path d="M 66.706796 63.67253 
L 114.359313 63.67253 
L 114.359313 48.625876 
L 66.706796 48.625876 
z
" clip-path="url(#pd068655192)" style="fill: #e3f2fd; stroke: #1976d2; stroke-linejoin: miter"/>
   </g>
   <g id="patch_6">
    <path d="M 122.116699 41.747405 
L 169.769216 41.747405 
L 169.769216 22.401706 
L 122.116699 22.401706 
z
" clip-path="url(#pd068655192)" style="fill: #dff0d8; stroke: #4caf50; stroke-linejoin: miter"/>
   </g>
   <g id="patch_7">
    <path d="M 122.116699 63.67253 
L 169.769216 63.67253 
L 169.769216 48.625876 
L 122.116699 48.625876 
z
" clip-path="url(#pd068655192)" style="fill: #e3f2fd; stroke: #1976d2; stroke-linejoin: miter"/>
   </g>
   <g id="patch_8">
    <path d="M 177.526603 41.747405 
L 225.179119 41.747405 
L 225.179119 22.401706 
L 177.526603 22.401706 
z
" clip-path="url(#pd068655192)" style="fill: #dff0d8; stroke: #4caf50; stroke-linejoin: miter"/>
   </g>
   <g id="patch_9">
    <path d="M 177.526603 63.67253 
L 225.179119 63.67253 
L 225.179119 48.625876 
L 177.526603 48.625876 
z
" clip-path="url(#pd068655192)" style="fill: #e3f2fd; stroke: #1976d2; stroke-linejoin: miter"/>
   </g>
   <g id="patch_10">
    <path d="M 232.936506 41.747405 
L 280.589022 41.747405 
L 280.589022 22.401706 
L 232.936506 22.401706 
z
" clip-path="url(#pd068655192)" style="fill: #dff0d8; stroke: #4caf50; stroke-linejoin: miter"/>
   </g>
   <g id="patch_11">
    <path d="M 232.936506 63.67253 
L 280.589022 63.67253 
L 280.589022 48.625876 
L 232.936506 48.625876 
z
" clip-path="url(#pd068655192)" style="fill: #e3f2fd; stroke: #1976d2; stroke-linejoin: miter"/>
   </g>
   <g id="patch_12">
    <path d="M 288.346409 41.747405 
L 335.998926 41.747405 
L 335.998926 22.401706 
L 288.346409 22.401706 
z
" clip-path="url(#pd068655192)" style="fill: #dff0d8; stroke: #4caf50; stroke-linejoin: miter"/>
   </g>
   <g id="patch_13">
    <path d="M 288.346409 63.67253 
L 335.998926 63.67253 
L 335.998926 48.625876 
L 288.346409 48.625876 
z
" clip-path="url(#pd068655192)" style="fill: #e3f2fd; stroke: #1976d2; stroke-linejoin: miter"/>
   </g>
   <g id="patch_14">
    <path d="M 343.756312 41.747405 
L 391.408829 41.747405 
L 391.408829 22.401706 
L 343.756312 22.401706 
z
" clip-path="url(#pd068655192)" style="fill: #dff0d8; stroke: #4caf50; stroke-linejoin: miter"/>
   </g>
   <g id="patch_15">
    <path d="M 343.756312 63.67253 
L 391.408829 63.67253 
L 391.408829 48.625876 
L 343.756312 48.625876 
z
" clip-path="url(#pd068655192)" style="fill: #e3f2fd; stroke: #1976d2; stroke-linejoin: miter"/>
   </g>
   <g id="patch_16">
    <path d="M 66.706796 129.591208 
L 114.359313 129.591208 
L 114.359313 110.245509 
L 66.706796 110.245509 
z
" clip-path="url(#pd068655192)" style="fill: #dff0d8; stroke: #4caf50; stroke-linejoin: miter"/>
   </g>
   <g id="patch_17">
    <path d="M 66.706796 103.367039 
L 114.359313 103.367039 
L 114.359313 88.320384 
L 66.706796 88.320384 
z
" clip-path="url(#pd068655192)" style="fill: #e3f2fd; stroke: #1976d2; stroke-linejoin: miter"/>
   </g>
   <g id="patch_18">
    <path d="M 122.116699 129.591208 
L 169.769216 129.591208 
L 169.769216 110.245509 
L 122.116699 110.245509 
z
" clip-path="url(#pd068655192)" style="fill: #dff0d8; stroke: #4caf50; stroke-linejoin: miter"/>
   </g>
   <g id="patch_19">
    <path d="M 122.116699 103.367039 
L 169.769216 103.367039 
L 169.769216 88.320384 
L 122.116699 88.320384 
z
" clip-path="url(#pd068655192)" style="fill: #e3f2fd; stroke: #1976d2; stroke-linejoin: miter"/>
   </g>
   <g id="patch_20">
    <path d="M 177.526603 129.591208 
L 225.179119 129.591208 
L 225.179119 110.245509 
L 177.526603 110.245509 
z
" clip-path="url(#pd068655192)" style="fill: #dff0d8; stroke: #4caf50; stroke-linejoin: miter"/>
   </g>
   <g id="patch_21">
    <path d="M 177.526603 103.367039 
L 225.179119 103.367039 
L 225.179119 88.320384 
L 177.526603 88.320384 
z
" clip-path="url(#pd068655192)" style="fill: #e3f2fd; stroke: #1976d2; stroke-linejoin: miter"/>
   </g>
   <g id="patch_22">
    <path d="M 232.936506 129.591208 
L 280.589022 129.591208 
L 280.589022 110.245509 
L 232.936506 110.245509 
z
" clip-path="url(#pd068655192)" style="fill: #dff0d8; stroke: #4caf50; stroke-linejoin: miter"/>
   </g>
   <g id="patch_23">
    <path d="M 232.936506 103.367039 
L 280.589022 103.367039 
L 280.589022 88.320384 
L 232.936506 88.320384 
z
" clip-path="url(#pd068655192)" style="fill: #e3f2fd; stroke: #1976d2; stroke-linejoin: miter"/>
   </g>
   <g id="patch_24">
    <path d="M 288.346409 129.591208 
L 335.998926 129.591208 
L 335.998926 110.245509 
L 288.346409 110.245509 
z
" clip-path="url(#pd068655192)" style="fill: #dff0d8; stroke: #4caf50; stroke-linejoin: miter"/>
   </g>
   <g id="patch_25">
    <path d="M 288.346409 103.367039 
L 335.998926 103.367039 
L 335.998926 88.320384 
L 288.346409 88.320384 
z
" clip-path="url(#pd068655192)" style="fill: #e3f2fd; stroke: #1976d2; stroke-linejoin: miter"/>
   </g>
   <g id="patch_26">
    <path d="M 343.756312 129.591208 
L 391.408829 129.591208 
L 391.408829 110.245509 
L 343.756312 110.245509 
z
" clip-path="url(#pd068655192)" style="fill: #dff0d8; stroke: #4caf50; stroke-linejoin: miter"/>
   </g>
   <g id="patch_27">
    <path d="M 343.756312 103.367039 
L 391.408829 103.367039 
L 391.408829 88.320384 
L 343.756312 88.320384 
z
" clip-path="url(#pd068655192)" style="fill: #e3f2fd; stroke: #1976d2; stroke-linejoin: miter"/>
   </g>
   <g id="line2d_1">
    <path d="M 62.828103 133.890253 
L 395.287522 133.890253 
" clip-path="url(#pd068655192)" style="fill: none; stroke: #000000; stroke-width: 0.8; stroke-linecap: square"/>
   </g>
   <g id="line2d_2">
    <path d="M 62.828103 132.743841 
L 62.828103 135.036664 
" clip-path="url(#pd068655192)" style="fill: none; stroke: #000000; stroke-width: 0.8; stroke-linecap: square"/>
   </g>
   <g id="line2d_3">
    <path d="M 395.287522 132.743841 
L 395.287522 135.036664 
" clip-path="url(#pd068655192)" style="fill: none; stroke: #000000; stroke-width: 0.8; stroke-linecap: square"/>
   </g>
   <g id="line2d_4">
    <path d="M 59.388868 130.451017 
L 59.388868 21.541897 
" clip-path="url(#pd068655192)" style="fill: none; stroke: #000000; stroke-width: 0.8; stroke-linecap: square"/>
   </g>
   <g id="line2d_5">
    <path d="M 60.535279 130.451017 
L 58.242456 130.451017 
" clip-path="url(#pd068655192)" style="fill: none; stroke: #000000; stroke-width: 0.8; stroke-linecap: square"/>
   </g>
   <g id="line2d_6">
    <path d="M 60.535279 21.541897 
L 58.242456 21.541897 
" clip-path="url(#pd068655192)" style="fill: none; stroke: #000000; stroke-width: 0.8; stroke-linecap: square"/>
   </g>
   <g id="text_1">
    <!-- Unit 1 -->
    <g transform="translate(80.069695 47.118203) scale(0.07 -0.07)">
     <defs>
      <path id="DejaVuSans-55" d="M 556 4666 
L 1191 4666 
L 1191 1831 
Q 1191 1081 1462 751 
Q 1734 422 2344 422 
Q 2950 422 3222 751 
Q 3494 1081 3494 1831 
L 3494 4666 
L 4128 4666 
L 4128 1753 
Q 4128 841 3676 375 
Q 3225 -91 2344 -91 
Q 1459 -91 1007 375 
Q 556 841 556 1753 
L 556 4666 
z
" transform="scale(0.015625)"/>
      <path id="DejaVuSans-6e" d="M 3513 2113 
L 3513 0 
L 2938 0 
L 2938 2094 
Q 2938 2591 2744 2837 
Q 2550 3084 2163 3084 
Q 1697 3084 1428 2787 
Q 1159 2491 1159 1978 
L 1159 0 
L 581 0 
L 581 3500 
L 1159 3500 
L 1159 2956 
Q 1366 3272 1645 3428 
Q 1925 3584 2291 3584 
Q 2894 3584 3203 3211 
Q 3513 2838 3513 2113 
z
" transform="scale(0.015625)"/>
      <path id="DejaVuSans-69" d="M 603 3500 
L 1178 3500 
L 1178 0 
L 603 0 
L 603 3500 
z
M 603 4863 
L 1178 4863 
L 1178 4134 
L 603 4134 
L 603 4863 
z
" transform="scale(0.015625)"/>
      <path id="DejaVuSans-74" d="M 1172 4494 
L 1172 3500 
L 2356 3500 
L 2356 3053 
L 1172 3053 
L 1172 1153 
Q 1172 725 1289 603 
Q 1406 481 1766 481 
L 2356 481 
L 2356 0 
L 1766 0 
Q 1100 0 847 248 
Q 594 497 594 1153 
L 594 3053 
L 172 3053 
L 172 3500 
L 594 3500 
L 594 4494 
L 1172 4494 
z
" transform="scale(0.015625)"/>
      <path id="DejaVuSans-20" transform="scale(0.015625)"/>
      <path id="DejaVuSans-31" d="M 794 531 
L 1825 531 
L 1825 4091 
L 703 3866 
L 703 4441 
L 1819 4666 
L 2450 4666 
L 2450 531 
L 3481 531 
L 3481 0 
L 794 0 
L 794 531 
z
" transform="scale(0.015625)"/>
     </defs>
     <use xlink:href="#DejaVuSans-55"/>
     <use xlink:href="#DejaVuSans-6e" transform="translate(73.193359 0)"/>
     <use xlink:href="#DejaVuSans-69" transform="translate(136.572266 0)"/>
     <use xlink:href="#DejaVuSans-74" transform="translate(164.355469 0)"/>
     <use xlink:href="#DejaVuSans-20" transform="translate(203.564453 0)"/>
     <use xlink:href="#DejaVuSans-31" transform="translate(235.351562 0)"/>
    </g>
   </g>
   <g id="text_2">
    <!-- Unit 3 -->
    <g transform="translate(135.479598 47.118203) scale(0.07 -0.07)">
     <defs>
      <path id="DejaVuSans-33" d="M 2597 2516 
Q 3050 2419 3304 2112 
Q 3559 1806 3559 1356 
Q 3559 666 3084 287 
Q 2609 -91 1734 -91 
Q 1441 -91 1130 -33 
Q 819 25 488 141 
L 488 750 
Q 750 597 1062 519 
Q 1375 441 1716 441 
Q 2309 441 2620 675 
Q 2931 909 2931 1356 
Q 2931 1769 2642 2001 
Q 2353 2234 1838 2234 
L 1294 2234 
L 1294 2753 
L 1863 2753 
Q 2328 2753 2575 2939 
Q 2822 3125 2822 3475 
Q 2822 3834 2567 4026 
Q 2313 4219 1838 4219 
Q 1578 4219 1281 4162 
Q 984 4106 628 3988 
L 628 4550 
Q 988 4650 1302 4700 
Q 1616 4750 1894 4750 
Q 2613 4750 3031 4423 
Q 3450 4097 3450 3541 
Q 3450 3153 3228 2886 
Q 3006 2619 2597 2516 
z
" transform="scale(0.015625)"/>
     </defs>
     <use xlink:href="#DejaVuSans-55"/>
     <use xlink:href="#DejaVuSans-6e" transform="translate(73.193359 0)"/>
     <use xlink:href="#DejaVuSans-69" transform="translate(136.572266 0)"/>
     <use xlink:href="#DejaVuSans-74" transform="translate(164.355469 0)"/>
     <use xlink:href="#DejaVuSans-20" transform="translate(203.564453 0)"/>
     <use xlink:href="#DejaVuSans-33" transform="translate(235.351562 0)"/>
    </g>
   </g>
   <g id="text_3">
    <!-- Unit 5 -->
    <g transform="translate(190.889502 47.118203) scale(0.07 -0.07)">
     <defs>
      <path id="DejaVuSans-35" d="M 691 4666 
L 3169 4666 
L 3169 4134 
L 1269 4134 
L 1269 2991 
Q 1406 3038 1543 3061 
Q 1681 3084 1819 3084 
Q 2600 3084 3056 2656 
Q 3513 2228 3513 1497 
Q 3513 744 3044 326 
Q 2575 -91 1722 -91 
Q 1428 -91 1123 -41 
Q 819 9 494 109 
L 494 744 
Q 775 591 1075 516 
Q 1375 441 1709 441 
Q 2250 441 2565 725 
Q 2881 1009 2881 1497 
Q 2881 1984 2565 2268 
Q 2250 2553 1709 2553 
Q 1456 2553 1204 2497 
Q 953 2441 691 2322 
L 691 4666 
z
" transform="scale(0.015625)"/>
     </defs>
     <use xlink:href="#DejaVuSans-55"/>
     <use xlink:href="#DejaVuSans-6e" transform="translate(73.193359 0)"/>
     <use xlink:href="#DejaVuSans-69" transform="translate(136.572266 0)"/>
     <use xlink:href="#DejaVuSans-74" transform="translate(164.355469 0)"/>
     <use xlink:href="#DejaVuSans-20" transform="translate(203.564453 0)"/>
     <use xlink:href="#DejaVuSans-35" transform="translate(235.351562 0)"/>
    </g>
   </g>
   <g id="text_4">
    <!-- Unit 7 -->
    <g transform="translate(246.299405 47.118203) scale(0.07 -0.07)">
     <defs>
      <path id="DejaVuSans-37" d="M 525 4666 
L 3525 4666 
L 3525 4397 
L 1831 0 
L 1172 0 
L 2766 4134 
L 525 4134 
L 525 4666 
z
" transform="scale(0.015625)"/>
     </defs>
     <use xlink:href="#DejaVuSans-55"/>
     <use xlink:href="#DejaVuSans-6e" transform="translate(73.193359 0)"/>
     <use xlink:href="#DejaVuSans-69" transform="translate(136.572266 0)"/>
     <use xlink:href="#DejaVuSans-74" transform="translate(164.355469 0)"/>
     <use xlink:href="#DejaVuSans-20" transform="translate(203.564453 0)"/>
     <use xlink:href="#DejaVuSans-37" transform="translate(235.351562 0)"/>
    </g>
   </g>
   <g id="text_5">
    <!-- Unit 9 -->
    <g transform="translate(301.709308 47.118203) scale(0.07 -0.07)">
     <defs>
      <path id="DejaVuSans-39" d="M 703 97 
L 703 672 
Q 941 559 1184 500 
Q 1428 441 1663 441 
Q 2288 441 2617 861 
Q 2947 1281 2994 2138 
Q 2813 1869 2534 1725 
Q 2256 1581 1919 1581 
Q 1219 1581 811 2004 
Q 403 2428 403 3163 
Q 403 3881 828 4315 
Q 1253 4750 1959 4750 
Q 2769 4750 3195 4129 
Q 3622 3509 3622 2328 
Q 3622 1225 3098 567 
Q 2575 -91 1691 -91 
Q 1453 -91 1209 -44 
Q 966 3 703 97 
z
M 1959 2075 
Q 2384 2075 2632 2365 
Q 2881 2656 2881 3163 
Q 2881 3666 2632 3958 
Q 2384 4250 1959 4250 
Q 1534 4250 1286 3958 
Q 1038 3666 1038 3163 
Q 1038 2656 1286 2365 
Q 1534 2075 1959 2075 
z
" transform="scale(0.015625)"/>
     </defs>
     <use xlink:href="#DejaVuSans-55"/>
     <use xlink:href="#DejaVuSans-6e" transform="translate(73.193359 0)"/>
     <use xlink:href="#DejaVuSans-69" transform="translate(136.572266 0)"/>
     <use xlink:href="#DejaVuSans-74" transform="translate(164.355469 0)"/>
     <use xlink:href="#DejaVuSans-20" transform="translate(203.564453 0)"/>
     <use xlink:href="#DejaVuSans-39" transform="translate(235.351562 0)"/>
    </g>
   </g>
   <g id="text_6">
    <!-- Unit 11 -->
    <g transform="translate(354.892336 47.118203) scale(0.07 -0.07)">
     <use xlink:href="#DejaVuSans-55"/>
     <use xlink:href="#DejaVuSans-6e" transform="translate(73.193359 0)"/>
     <use xlink:href="#DejaVuSans-69" transform="translate(136.572266 0)"/>
     <use xlink:href="#DejaVuSans-74" transform="translate(164.355469 0)"/>
     <use xlink:href="#DejaVuSans-20" transform="translate(203.564453 0)"/>
     <use xlink:href="#DejaVuSans-31" transform="translate(235.351562 0)"/>
     <use xlink:href="#DejaVuSans-31" transform="translate(298.974609 0)"/>
    </g>
   </g>
   <g id="text_7">
    <!-- Unit 2 -->
    <g transform="translate(80.069695 108.737836) scale(0.07 -0.07)">
     <defs>
      <path id="DejaVuSans-32" d="M 1228 531 
L 3431 531 
L 3431 0 
L 469 0 
L 469 531 
Q 828 903 1448 1529 
Q 2069 2156 2228 2338 
Q 2531 2678 2651 2914 
Q 2772 3150 2772 3378 
Q 2772 3750 2511 3984 
Q 2250 4219 1831 4219 
Q 1534 4219 1204 4116 
Q 875 4013 500 3803 
L 500 4441 
Q 881 4594 1212 4672 
Q 1544 4750 1819 4750 
Q 2544 4750 2975 4387 
Q 3406 4025 3406 3419 
Q 3406 3131 3298 2873 
Q 3191 2616 2906 2266 
Q 2828 2175 2409 1742 
Q 1991 1309 1228 531 
z
" transform="scale(0.015625)"/>
     </defs>
     <use xlink:href="#DejaVuSans-55"/>
     <use xlink:href="#DejaVuSans-6e" transform="translate(73.193359 0)"/>
     <use xlink:href="#DejaVuSans-69" transform="translate(136.572266 0)"/>
     <use xlink:href="#DejaVuSans-74" transform="translate(164.355469 0)"/>
     <use xlink:href="#DejaVuSans-20" transform="translate(203.564453 0)"/>
     <use xlink:href="#DejaVuSans-32" transform="translate(235.351562 0)"/>
    </g>
   </g>
   <g id="text_8">
    <!-- Unit 4 -->
    <g transform="translate(135.479598 108.737836) scale(0.07 -0.07)">
     <defs>
      <path id="DejaVuSans-34" d="M 2419 4116 
L 825 1625 
L 2419 1625 
L 2419 4116 
z
M 2253 4666 
L 3047 4666 
L 3047 1625 
L 3713 1625 
L 3713 1100 
L 3047 1100 
L 3047 0 
L 2419 0 
L 2419 1100 
L 313 1100 
L 313 1709 
L 2253 4666 
z
" transform="scale(0.015625)"/>
     </defs>
     <use xlink:href="#DejaVuSans-55"/>
     <use xlink:href="#DejaVuSans-6e" transform="translate(73.193359 0)"/>
     <use xlink:href="#DejaVuSans-69" transform="translate(136.572266 0)"/>
     <use xlink:href="#DejaVuSans-74" transform="translate(164.355469 0)"/>
     <use xlink:href="#DejaVuSans-20" transform="translate(203.564453 0)"/>
     <use xlink:href="#DejaVuSans-34" transform="translate(235.351562 0)"/>
    </g>
   </g>
   <g id="text_9">
    <!-- Unit 6 -->
    <g transform="translate(190.889502 108.737836) scale(0.07 -0.07)">
     <defs>
      <path id="DejaVuSans-36" d="M 2113 2584 
Q 1688 2584 1439 2293 
Q 1191 2003 1191 1497 
Q 1191 994 1439 701 
Q 1688 409 2113 409 
Q 2538 409 2786 701 
Q 3034 994 3034 1497 
Q 3034 2003 2786 2293 
Q 2538 2584 2113 2584 
z
M 3366 4563 
L 3366 3988 
Q 3128 4100 2886 4159 
Q 2644 4219 2406 4219 
Q 1781 4219 1451 3797 
Q 1122 3375 1075 2522 
Q 1259 2794 1537 2939 
Q 1816 3084 2150 3084 
Q 2853 3084 3261 2657 
Q 3669 2231 3669 1497 
Q 3669 778 3244 343 
Q 2819 -91 2113 -91 
Q 1303 -91 875 529 
Q 447 1150 447 2328 
Q 447 3434 972 4092 
Q 1497 4750 2381 4750 
Q 2619 4750 2861 4703 
Q 3103 4656 3366 4563 
z
" transform="scale(0.015625)"/>
     </defs>
     <use xlink:href="#DejaVuSans-55"/>
     <use xlink:href="#DejaVuSans-6e" transform="translate(73.193359 0)"/>
     <use xlink:href="#DejaVuSans-69" transform="translate(136.572266 0)"/>
     <use xlink:href="#DejaVuSans-74" transform="translate(164.355469 0)"/>
     <use xlink:href="#DejaVuSans-20" transform="translate(203.564453 0)"/>
     <use xlink:href="#DejaVuSans-36" transform="translate(235.351562 0)"/>
    </g>
   </g>
   <g id="text_10">
    <!-- Unit 8 -->
    <g transform="translate(246.299405 108.737836) scale(0.07 -0.07)">
     <defs>
      <path id="DejaVuSans-38" d="M 2034 2216 
Q 1584 2216 1326 1975 
Q 1069 1734 1069 1313 
Q 1069 891 1326 650 
Q 1584 409 2034 409 
Q 2484 409 2743 651 
Q 3003 894 3003 1313 
Q 3003 1734 2745 1975 
Q 2488 2216 2034 2216 
z
M 1403 2484 
Q 997 2584 770 2862 
Q 544 3141 544 3541 
Q 544 4100 942 4425 
Q 1341 4750 2034 4750 
Q 2731 4750 3128 4425 
Q 3525 4100 3525 3541 
Q 3525 3141 3298 2862 
Q 3072 2584 2669 2484 
Q 3125 2378 3379 2068 
Q 3634 1759 3634 1313 
Q 3634 634 3220 271 
Q 2806 -91 2034 -91 
Q 1263 -91 848 271 
Q 434 634 434 1313 
Q 434 1759 690 2068 
Q 947 2378 1403 2484 
z
M 1172 3481 
Q 1172 3119 1398 2916 
Q 1625 2713 2034 2713 
Q 2441 2713 2670 2916 
Q 2900 3119 2900 3481 
Q 2900 3844 2670 4047 
Q 2441 4250 2034 4250 
Q 1625 4250 1398 4047 
Q 1172 3844 1172 3481 
z
" transform="scale(0.015625)"/>
     </defs>
     <use xlink:href="#DejaVuSans-55"/>
     <use xlink:href="#DejaVuSans-6e" transform="translate(73.193359 0)"/>
     <use xlink:href="#DejaVuSans-69" transform="translate(136.572266 0)"/>
     <use xlink:href="#DejaVuSans-74" transform="translate(164.355469 0)"/>
     <use xlink:href="#DejaVuSans-20" transform="translate(203.564453 0)"/>
     <use xlink:href="#DejaVuSans-38" transform="translate(235.351562 0)"/>
    </g>
   </g>
   <g id="text_11">
    <!-- Unit 10 -->
    <g transform="translate(299.482433 108.737836) scale(0.07 -0.07)">
     <defs>
      <path id="DejaVuSans-30" d="M 2034 4250 
Q 1547 4250 1301 3770 
Q 1056 3291 1056 2328 
Q 1056 1369 1301 889 
Q 1547 409 2034 409 
Q 2525 409 2770 889 
Q 3016 1369 3016 2328 
Q 3016 3291 2770 3770 
Q 2525 4250 2034 4250 
z
M 2034 4750 
Q 2819 4750 3233 4129 
Q 3647 3509 3647 2328 
Q 3647 1150 3233 529 
Q 2819 -91 2034 -91 
Q 1250 -91 836 529 
Q 422 1150 422 2328 
Q 422 3509 836 4129 
Q 1250 4750 2034 4750 
z
" transform="scale(0.015625)"/>
     </defs>
     <use xlink:href="#DejaVuSans-55"/>
     <use xlink:href="#DejaVuSans-6e" transform="translate(73.193359 0)"/>
     <use xlink:href="#DejaVuSans-69" transform="translate(136.572266 0)"/>
     <use xlink:href="#DejaVuSans-74" transform="translate(164.355469 0)"/>
     <use xlink:href="#DejaVuSans-20" transform="translate(203.564453 0)"/>
     <use xlink:href="#DejaVuSans-31" transform="translate(235.351562 0)"/>
     <use xlink:href="#DejaVuSans-30" transform="translate(298.974609 0)"/>
    </g>
   </g>
   <g id="text_12">
    <!-- Unit 12 -->
    <g transform="translate(354.892336 108.737836) scale(0.07 -0.07)">
     <use xlink:href="#DejaVuSans-55"/>
     <use xlink:href="#DejaVuSans-6e" transform="translate(73.193359 0)"/>
     <use xlink:href="#DejaVuSans-69" transform="translate(136.572266 0)"/>
     <use xlink:href="#DejaVuSans-74" transform="translate(164.355469 0)"/>
     <use xlink:href="#DejaVuSans-20" transform="translate(203.564453 0)"/>
     <use xlink:href="#DejaVuSans-31" transform="translate(235.351562 0)"/>
     <use xlink:href="#DejaVuSans-32" transform="translate(298.974609 0)"/>
    </g>
   </g>
   <g id="text_13">
    <!-- Central Driveway -->
    <g style="fill: #696969" transform="translate(194.467813 73.724832) scale(0.08 -0.08)">
     <defs>
      <path id="DejaVuSans-43" d="M 4122 4306 
L 4122 3641 
Q 3803 3938 3442 4084 
Q 3081 4231 2675 4231 
Q 1875 4231 1450 3742 
Q 1025 3253 1025 2328 
Q 1025 1406 1450 917 
Q 1875 428 2675 428 
Q 3081 428 3442 575 
Q 3803 722 4122 1019 
L 4122 359 
Q 3791 134 3420 21 
Q 3050 -91 2638 -91 
Q 1578 -91 968 557 
Q 359 1206 359 2328 
Q 359 3453 968 4101 
Q 1578 4750 2638 4750 
Q 3056 4750 3426 4639 
Q 3797 4528 4122 4306 
z
" transform="scale(0.015625)"/>
      <path id="DejaVuSans-65" d="M 3597 1894 
L 3597 1613 
L 953 1613 
Q 991 1019 1311 708 
Q 1631 397 2203 397 
Q 2534 397 2845 478 
Q 3156 559 3463 722 
L 3463 178 
Q 3153 47 2828 -22 
Q 2503 -91 2169 -91 
Q 1331 -91 842 396 
Q 353 884 353 1716 
Q 353 2575 817 3079 
Q 1281 3584 2069 3584 
Q 2775 3584 3186 3129 
Q 3597 2675 3597 1894 
z
M 3022 2063 
Q 3016 2534 2758 2815 
Q 2500 3097 2075 3097 
Q 1594 3097 1305 2825 
Q 1016 2553 972 2059 
L 3022 2063 
z
" transform="scale(0.015625)"/>
      <path id="DejaVuSans-72" d="M 2631 2963 
Q 2534 3019 2420 3045 
Q 2306 3072 2169 3072 
Q 1681 3072 1420 2755 
Q 1159 2438 1159 1844 
L 1159 0 
L 581 0 
L 581 3500 
L 1159 3500 
L 1159 2956 
Q 1341 3275 1631 3429 
Q 1922 3584 2338 3584 
Q 2397 3584 2469 3576 
Q 2541 3569 2628 3553 
L 2631 2963 
z
" transform="scale(0.015625)"/>
      <path id="DejaVuSans-61" d="M 2194 1759 
Q 1497 1759 1228 1600 
Q 959 1441 959 1056 
Q 959 750 1161 570 
Q 1363 391 1709 391 
Q 2188 391 2477 730 
Q 2766 1069 2766 1631 
L 2766 1759 
L 2194 1759 
z
M 3341 1997 
L 3341 0 
L 2766 0 
L 2766 531 
Q 2569 213 2275 61 
Q 1981 -91 1556 -91 
Q 1019 -91 701 211 
Q 384 513 384 1019 
Q 384 1609 779 1909 
Q 1175 2209 1959 2209 
L 2766 2209 
L 2766 2266 
Q 2766 2663 2505 2880 
Q 2244 3097 1772 3097 
Q 1472 3097 1187 3025 
Q 903 2953 641 2809 
L 641 3341 
Q 956 3463 1253 3523 
Q 1550 3584 1831 3584 
Q 2591 3584 2966 3190 
Q 3341 2797 3341 1997 
z
" transform="scale(0.015625)"/>
      <path id="DejaVuSans-6c" d="M 603 4863 
L 1178 4863 
L 1178 0 
L 603 0 
L 603 4863 
z
" transform="scale(0.015625)"/>
      <path id="DejaVuSans-44" d="M 1259 4147 
L 1259 519 
L 2022 519 
Q 2988 519 3436 956 
Q 3884 1394 3884 2338 
Q 3884 3275 3436 3711 
Q 2988 4147 2022 4147 
L 1259 4147 
z
M 628 4666 
L 1925 4666 
Q 3281 4666 3915 4102 
Q 4550 3538 4550 2338 
Q 4550 1131 3912 565 
Q 3275 0 1925 0 
L 628 0 
L 628 4666 
z
" transform="scale(0.015625)"/>
      <path id="DejaVuSans-76" d="M 191 3500 
L 800 3500 
L 1894 563 
L 2988 3500 
L 3597 3500 
L 2284 0 
L 1503 0 
L 191 3500 
z
" transform="scale(0.015625)"/>
      <path id="DejaVuSans-77" d="M 269 3500 
L 844 3500 
L 1563 769 
L 2278 3500 
L 2956 3500 
L 3675 769 
L 4391 3500 
L 4966 3500 
L 4050 0 
L 3372 0 
L 2619 2869 
L 1863 0 
L 1184 0 
L 269 3500 
z
" transform="scale(0.015625)"/>
      <path id="DejaVuSans-79" d="M 2059 -325 
Q 1816 -950 1584 -1140 
Q 1353 -1331 966 -1331 
L 506 -1331 
L 506 -850 
L 844 -850 
Q 1081 -850 1212 -737 
Q 1344 -625 1503 -206 
L 1606 56 
L 191 3500 
L 800 3500 
L 1894 763 
L 2988 3500 
L 3597 3500 
L 2059 -325 
z
" transform="scale(0.015625)"/>
     </defs>
     <use xlink:href="#DejaVuSans-43"/>
     <use xlink:href="#DejaVuSans-65" transform="translate(69.824219 0)"/>
     <use xlink:href="#DejaVuSans-6e" transform="translate(131.347656 0)"/>
     <use xlink:href="#DejaVuSans-74" transform="translate(194.726562 0)"/>
     <use xlink:href="#DejaVuSans-72" transform="translate(233.935547 0)"/>
     <use xlink:href="#DejaVuSans-61" transform="translate(275.048828 0)"/>
     <use xlink:href="#DejaVuSans-6c" transform="translate(336.328125 0)"/>
     <use xlink:href="#DejaVuSans-20" transform="translate(364.111328 0)"/>
     <use xlink:href="#DejaVuSans-44" transform="translate(395.898438 0)"/>
     <use xlink:href="#DejaVuSans-72" transform="translate(472.900391 0)"/>
     <use xlink:href="#DejaVuSans-69" transform="translate(514.013672 0)"/>
     <use xlink:href="#DejaVuSans-76" transform="translate(541.796875 0)"/>
     <use xlink:href="#DejaVuSans-65" transform="translate(600.976562 0)"/>
     <use xlink:href="#DejaVuSans-77" transform="translate(662.5 0)"/>
     <use xlink:href="#DejaVuSans-61" transform="translate(744.287109 0)"/>
     <use xlink:href="#DejaVuSans-79" transform="translate(805.566406 0)"/>
    </g>
    <!-- ~4 m -->
    <g style="fill: #696969" transform="translate(217.993438 82.683082) scale(0.08 -0.08)">
     <defs>
      <path id="DejaVuSans-7e" d="M 4684 2553 
L 4684 1997 
Q 4356 1750 4076 1644 
Q 3797 1538 3494 1538 
Q 3150 1538 2694 1722 
Q 2659 1734 2644 1741 
Q 2622 1750 2575 1766 
Q 2091 1959 1797 1959 
Q 1522 1959 1253 1839 
Q 984 1719 678 1459 
L 678 2016 
Q 1006 2263 1286 2370 
Q 1566 2478 1869 2478 
Q 2213 2478 2672 2291 
Q 2703 2278 2719 2272 
Q 2744 2263 2788 2247 
Q 3272 2053 3566 2053 
Q 3834 2053 4098 2172 
Q 4363 2291 4684 2553 
z
" transform="scale(0.015625)"/>
      <path id="DejaVuSans-6d" d="M 3328 2828 
Q 3544 3216 3844 3400 
Q 4144 3584 4550 3584 
Q 5097 3584 5394 3201 
Q 5691 2819 5691 2113 
L 5691 0 
L 5113 0 
L 5113 2094 
Q 5113 2597 4934 2840 
Q 4756 3084 4391 3084 
Q 3944 3084 3684 2787 
Q 3425 2491 3425 1978 
L 3425 0 
L 2847 0 
L 2847 2094 
Q 2847 2600 2669 2842 
Q 2491 3084 2119 3084 
Q 1678 3084 1418 2786 
Q 1159 2488 1159 1978 
L 1159 0 
L 581 0 
L 581 3500 
L 1159 3500 
L 1159 2956 
Q 1356 3278 1631 3431 
Q 1906 3584 2284 3584 
Q 2666 3584 2933 3390 
Q 3200 3197 3328 2828 
z
" transform="scale(0.015625)"/>
     </defs>
     <use xlink:href="#DejaVuSans-7e"/>
     <use xlink:href="#DejaVuSans-34" transform="translate(83.789062 0)"/>
     <use xlink:href="#DejaVuSans-20" transform="translate(147.412109 0)"/>
     <use xlink:href="#DejaVuSans-6d" transform="translate(179.199219 0)"/>
    </g>
   </g>
   <g id="text_14">
    <!-- 58 m -->
    <g transform="translate(218.800313 143.981444) scale(0.08 -0.08)">
     <use xlink:href="#DejaVuSans-35"/>
     <use xlink:href="#DejaVuSans-38" transform="translate(63.623047 0)"/>
     <use xlink:href="#DejaVuSans-20" transform="translate(127.246094 0)"/>
     <use xlink:href="#DejaVuSans-6d" transform="translate(159.033203 0)"/>
    </g>
   </g>
   <g id="text_15">
    <!-- 19 m -->
    <g transform="translate(58.157132 86.253957) rotate(-90) scale(0.08 -0.08)">
     <use xlink:href="#DejaVuSans-31"/>
     <use xlink:href="#DejaVuSans-39" transform="translate(63.623047 0)"/>
     <use xlink:href="#DejaVuSans-20" transform="translate(127.246094 0)"/>
     <use xlink:href="#DejaVuSans-6d" transform="translate(159.033203 0)"/>
    </g>
   </g>
   <g id="text_16">
    <!-- Container House Project — Site Layout (Not to container depth; scaled to plot) -->
    <g transform="translate(7.2 14.798437) scale(0.1 -0.1)">
     <defs>
      <path id="DejaVuSans-Bold-43" d="M 4288 256 
Q 3956 84 3597 -3 
Q 3238 -91 2847 -91 
Q 1681 -91 1000 561 
Q 319 1213 319 2328 
Q 319 3447 1000 4098 
Q 1681 4750 2847 4750 
Q 3238 4750 3597 4662 
Q 3956 4575 4288 4403 
L 4288 3438 
Q 3953 3666 3628 3772 
Q 3303 3878 2944 3878 
Q 2300 3878 1931 3465 
Q 1563 3053 1563 2328 
Q 1563 1606 1931 1193 
Q 2300 781 2944 781 
Q 3303 781 3628 887 
Q 3953 994 4288 1222 
L 4288 256 
z
" transform="scale(0.015625)"/>
      <path id="DejaVuSans-Bold-6f" d="M 2203 2784 
Q 1831 2784 1636 2517 
Q 1441 2250 1441 1747 
Q 1441 1244 1636 976 
Q 1831 709 2203 709 
Q 2569 709 2762 976 
Q 2956 1244 2956 1747 
Q 2956 2250 2762 2517 
Q 2569 2784 2203 2784 
z
M 2203 3584 
Q 3106 3584 3614 3096 
Q 4122 2609 4122 1747 
Q 4122 884 3614 396 
Q 3106 -91 2203 -91 
Q 1297 -91 786 396 
Q 275 884 275 1747 
Q 275 2609 786 3096 
Q 1297 3584 2203 3584 
z
" transform="scale(0.015625)"/>
      <path id="DejaVuSans-Bold-6e" d="M 4056 2131 
L 4056 0 
L 2931 0 
L 2931 347 
L 2931 1631 
Q 2931 2084 2911 2256 
Q 2891 2428 2841 2509 
Q 2775 2619 2662 2680 
Q 2550 2741 2406 2741 
Q 2056 2741 1856 2470 
Q 1656 2200 1656 1722 
L 1656 0 
L 538 0 
L 538 3500 
L 1656 3500 
L 1656 2988 
Q 1909 3294 2193 3439 
Q 2478 3584 2822 3584 
Q 3428 3584 3742 3212 
Q 4056 2841 4056 2131 
z
" transform="scale(0.015625)"/>
      <path id="DejaVuSans-Bold-74" d="M 1759 4494 
L 1759 3500 
L 2913 3500 
L 2913 2700 
L 1759 2700 
L 1759 1216 
Q 1759 972 1856 886 
Q 1953 800 2241 800 
L 2816 800 
L 2816 0 
L 1856 0 
Q 1194 0 917 276 
Q 641 553 641 1216 
L 641 2700 
L 84 2700 
L 84 3500 
L 641 3500 
L 641 4494 
L 1759 4494 
z
" transform="scale(0.015625)"/>
      <path id="DejaVuSans-Bold-61" d="M 2106 1575 
Q 1756 1575 1579 1456 
Q 1403 1338 1403 1106 
Q 1403 894 1545 773 
Q 1688 653 1941 653 
Q 2256 653 2472 879 
Q 2688 1106 2688 1447 
L 2688 1575 
L 2106 1575 
z
M 3816 1997 
L 3816 0 
L 2688 0 
L 2688 519 
Q 2463 200 2181 54 
Q 1900 -91 1497 -91 
Q 953 -91 614 226 
Q 275 544 275 1050 
Q 275 1666 698 1953 
Q 1122 2241 2028 2241 
L 2688 2241 
L 2688 2328 
Q 2688 2594 2478 2717 
Q 2269 2841 1825 2841 
Q 1466 2841 1156 2769 
Q 847 2697 581 2553 
L 581 3406 
Q 941 3494 1303 3539 
Q 1666 3584 2028 3584 
Q 2975 3584 3395 3211 
Q 3816 2838 3816 1997 
z
" transform="scale(0.015625)"/>
      <path id="DejaVuSans-Bold-69" d="M 538 3500 
L 1656 3500 
L 1656 0 
L 538 0 
L 538 3500 
z
M 538 4863 
L 1656 4863 
L 1656 3950 
L 538 3950 
L 538 4863 
z
" transform="scale(0.015625)"/>
      <path id="DejaVuSans-Bold-65" d="M 4031 1759 
L 4031 1441 
L 1416 1441 
Q 1456 1047 1700 850 
Q 1944 653 2381 653 
Q 2734 653 3104 758 
Q 3475 863 3866 1075 
L 3866 213 
Q 3469 63 3072 -14 
Q 2675 -91 2278 -91 
Q 1328 -91 801 392 
Q 275 875 275 1747 
Q 275 2603 792 3093 
Q 1309 3584 2216 3584 
Q 3041 3584 3536 3087 
Q 4031 2591 4031 1759 
z
M 2881 2131 
Q 2881 2450 2695 2645 
Q 2509 2841 2209 2841 
Q 1884 2841 1681 2658 
Q 1478 2475 1428 2131 
L 2881 2131 
z
" transform="scale(0.015625)"/>
      <path id="DejaVuSans-Bold-72" d="M 3138 2547 
Q 2991 2616 2845 2648 
Q 2700 2681 2553 2681 
Q 2122 2681 1889 2404 
Q 1656 2128 1656 1613 
L 1656 0 
L 538 0 
L 538 3500 
L 1656 3500 
L 1656 2925 
Q 1872 3269 2151 3426 
Q 2431 3584 2822 3584 
Q 2878 3584 2943 3579 
Q 3009 3575 3134 3559 
L 3138 2547 
z
" transform="scale(0.015625)"/>
      <path id="DejaVuSans-Bold-20" transform="scale(0.015625)"/>
      <path id="DejaVuSans-Bold-48" d="M 588 4666 
L 1791 4666 
L 1791 2888 
L 3566 2888 
L 3566 4666 
L 4769 4666 
L 4769 0 
L 3566 0 
L 3566 1978 
L 1791 1978 
L 1791 0 
L 588 0 
L 588 4666 
z
" transform="scale(0.015625)"/>
      <path id="DejaVuSans-Bold-75" d="M 500 1363 
L 500 3500 
L 1625 3500 
L 1625 3150 
Q 1625 2866 1622 2436 
Q 1619 2006 1619 1863 
Q 1619 1441 1641 1255 
Q 1663 1069 1716 984 
Q 1784 875 1895 815 
Q 2006 756 2150 756 
Q 2500 756 2700 1025 
Q 2900 1294 2900 1772 
L 2900 3500 
L 4019 3500 
L 4019 0 
L 2900 0 
L 2900 506 
Q 2647 200 2364 54 
Q 2081 -91 1741 -91 
Q 1134 -91 817 281 
Q 500 653 500 1363 
z
" transform="scale(0.015625)"/>
      <path id="DejaVuSans-Bold-73" d="M 3272 3391 
L 3272 2541 
Q 2913 2691 2578 2766 
Q 2244 2841 1947 2841 
Q 1628 2841 1473 2761 
Q 1319 2681 1319 2516 
Q 1319 2381 1436 2309 
Q 1553 2238 1856 2203 
L 2053 2175 
Q 2913 2066 3209 1816 
Q 3506 1566 3506 1031 
Q 3506 472 3093 190 
Q 2681 -91 1863 -91 
Q 1516 -91 1145 -36 
Q 775 19 384 128 
L 384 978 
Q 719 816 1070 734 
Q 1422 653 1784 653 
Q 2113 653 2278 743 
Q 2444 834 2444 1013 
Q 2444 1163 2330 1236 
Q 2216 1309 1875 1350 
L 1678 1375 
Q 931 1469 631 1722 
Q 331 1975 331 2491 
Q 331 3047 712 3315 
Q 1094 3584 1881 3584 
Q 2191 3584 2531 3537 
Q 2872 3491 3272 3391 
z
" transform="scale(0.015625)"/>
      <path id="DejaVuSans-Bold-50" d="M 588 4666 
L 2584 4666 
Q 3475 4666 3951 4270 
Q 4428 3875 4428 3144 
Q 4428 2409 3951 2014 
Q 3475 1619 2584 1619 
L 1791 1619 
L 1791 0 
L 588 0 
L 588 4666 
z
M 1791 3794 
L 1791 2491 
L 2456 2491 
Q 2806 2491 2997 2661 
Q 3188 2831 3188 3144 
Q 3188 3456 2997 3625 
Q 2806 3794 2456 3794 
L 1791 3794 
z
" transform="scale(0.015625)"/>
      <path id="DejaVuSans-Bold-6a" d="M 538 3500 
L 1656 3500 
L 1656 63 
Q 1656 -641 1318 -1011 
Q 981 -1381 341 -1381 
L -213 -1381 
L -213 -647 
L -19 -647 
Q 300 -647 419 -503 
Q 538 -359 538 63 
L 538 3500 
z
M 538 4863 
L 1656 4863 
L 1656 3950 
L 538 3950 
L 538 4863 
z
" transform="scale(0.015625)"/>
      <path id="DejaVuSans-Bold-63" d="M 3366 3391 
L 3366 2478 
Q 3138 2634 2908 2709 
Q 2678 2784 2431 2784 
Q 1963 2784 1702 2511 
Q 1441 2238 1441 1747 
Q 1441 1256 1702 982 
Q 1963 709 2431 709 
Q 2694 709 2930 787 
Q 3166 866 3366 1019 
L 3366 103 
Q 3103 6 2833 -42 
Q 2563 -91 2291 -91 
Q 1344 -91 809 395 
Q 275 881 275 1747 
Q 275 2613 809 3098 
Q 1344 3584 2291 3584 
Q 2566 3584 2833 3536 
Q 3100 3488 3366 3391 
z
" transform="scale(0.015625)"/>
      <path id="DejaVuSans-Bold-2014" d="M 344 2156 
L 6056 2156 
L 6056 1350 
L 344 1350 
L 344 2156 
z
" transform="scale(0.015625)"/>
      <path id="DejaVuSans-Bold-53" d="M 3834 4519 
L 3834 3531 
Q 3450 3703 3084 3790 
Q 2719 3878 2394 3878 
Q 1963 3878 1756 3759 
Q 1550 3641 1550 3391 
Q 1550 3203 1689 3098 
Q 1828 2994 2194 2919 
L 2706 2816 
Q 3484 2659 3812 2340 
Q 4141 2022 4141 1434 
Q 4141 663 3683 286 
Q 3225 -91 2284 -91 
Q 1841 -91 1394 -6 
Q 947 78 500 244 
L 500 1259 
Q 947 1022 1364 901 
Q 1781 781 2169 781 
Q 2563 781 2772 912 
Q 2981 1044 2981 1288 
Q 2981 1506 2839 1625 
Q 2697 1744 2272 1838 
L 1806 1941 
Q 1106 2091 782 2419 
Q 459 2747 459 3303 
Q 459 4000 909 4375 
Q 1359 4750 2203 4750 
Q 2588 4750 2994 4692 
Q 3400 4634 3834 4519 
z
" transform="scale(0.015625)"/>
      <path id="DejaVuSans-Bold-4c" d="M 588 4666 
L 1791 4666 
L 1791 909 
L 3903 909 
L 3903 0 
L 588 0 
L 588 4666 
z
" transform="scale(0.015625)"/>
      <path id="DejaVuSans-Bold-79" d="M 78 3500 
L 1197 3500 
L 2138 1125 
L 2938 3500 
L 4056 3500 
L 2584 -331 
Q 2363 -916 2067 -1148 
Q 1772 -1381 1288 -1381 
L 641 -1381 
L 641 -647 
L 991 -647 
Q 1275 -647 1404 -556 
Q 1534 -466 1606 -231 
L 1638 -134 
L 78 3500 
z
" transform="scale(0.015625)"/>
      <path id="DejaVuSans-Bold-28" d="M 2413 -844 
L 1484 -844 
Q 1006 -72 778 623 
Q 550 1319 550 2003 
Q 550 2688 779 3389 
Q 1009 4091 1484 4856 
L 2413 4856 
Q 2013 4116 1813 3408 
Q 1613 2700 1613 2009 
Q 1613 1319 1811 609 
Q 2009 -100 2413 -844 
z
" transform="scale(0.015625)"/>
      <path id="DejaVuSans-Bold-4e" d="M 588 4666 
L 1931 4666 
L 3628 1466 
L 3628 4666 
L 4769 4666 
L 4769 0 
L 3425 0 
L 1728 3200 
L 1728 0 
L 588 0 
L 588 4666 
z
" transform="scale(0.015625)"/>
      <path id="DejaVuSans-Bold-64" d="M 2919 2988 
L 2919 4863 
L 4044 4863 
L 4044 0 
L 2919 0 
L 2919 506 
Q 2688 197 2409 53 
Q 2131 -91 1766 -91 
Q 1119 -91 703 423 
Q 288 938 288 1747 
Q 288 2556 703 3070 
Q 1119 3584 1766 3584 
Q 2128 3584 2408 3439 
Q 2688 3294 2919 2988 
z
M 2181 722 
Q 2541 722 2730 984 
Q 2919 1247 2919 1747 
Q 2919 2247 2730 2509 
Q 2541 2772 2181 2772 
Q 1825 2772 1636 2509 
Q 1447 2247 1447 1747 
Q 1447 1247 1636 984 
Q 1825 722 2181 722 
z
" transform="scale(0.015625)"/>
      <path id="DejaVuSans-Bold-70" d="M 1656 506 
L 1656 -1331 
L 538 -1331 
L 538 3500 
L 1656 3500 
L 1656 2988 
Q 1888 3294 2169 3439 
Q 2450 3584 2816 3584 
Q 3463 3584 3878 3070 
Q 4294 2556 4294 1747 
Q 4294 938 3878 423 
Q 3463 -91 2816 -91 
Q 2450 -91 2169 54 
Q 1888 200 1656 506 
z
M 2400 2772 
Q 2041 2772 1848 2508 
Q 1656 2244 1656 1747 
Q 1656 1250 1848 986 
Q 2041 722 2400 722 
Q 2759 722 2948 984 
Q 3138 1247 3138 1747 
Q 3138 2247 2948 2509 
Q 2759 2772 2400 2772 
z
" transform="scale(0.015625)"/>
      <path id="DejaVuSans-Bold-68" d="M 4056 2131 
L 4056 0 
L 2931 0 
L 2931 347 
L 2931 1625 
Q 2931 2084 2911 2256 
Q 2891 2428 2841 2509 
Q 2775 2619 2662 2680 
Q 2550 2741 2406 2741 
Q 2056 2741 1856 2470 
Q 1656 2200 1656 1722 
L 1656 0 
L 538 0 
L 538 4863 
L 1656 4863 
L 1656 2988 
Q 1909 3294 2193 3439 
Q 2478 3584 2822 3584 
Q 3428 3584 3742 3212 
Q 4056 2841 4056 2131 
z
" transform="scale(0.015625)"/>
      <path id="DejaVuSans-Bold-3b" d="M 716 1209 
L 1844 1209 
L 1844 256 
L 1069 -909 
L 403 -909 
L 716 256 
L 716 1209 
z
M 716 3500 
L 1844 3500 
L 1844 2291 
L 716 2291 
L 716 3500 
z
" transform="scale(0.015625)"/>
      <path id="DejaVuSans-Bold-6c" d="M 538 4863 
L 1656 4863 
L 1656 0 
L 538 0 
L 538 4863 
z
" transform="scale(0.015625)"/>
      <path id="DejaVuSans-Bold-29" d="M 513 -844 
Q 913 -100 1113 609 
Q 1313 1319 1313 2009 
Q 1313 2700 1113 3408 
Q 913 4116 513 4856 
L 1441 4856 
Q 1916 4091 2145 3389 
Q 2375 2688 2375 2003 
Q 2375 1319 2147 623 
Q 1919 -72 1441 -844 
L 513 -844 
z
" transform="scale(0.015625)"/>
     </defs>
     <use xlink:href="#DejaVuSans-Bold-43"/>
     <use xlink:href="#DejaVuSans-Bold-6f" transform="translate(73.388672 0)"/>
     <use xlink:href="#DejaVuSans-Bold-6e" transform="translate(142.089844 0)"/>
     <use xlink:href="#DejaVuSans-Bold-74" transform="translate(213.28125 0)"/>
     <use xlink:href="#DejaVuSans-Bold-61" transform="translate(261.083984 0)"/>
     <use xlink:href="#DejaVuSans-Bold-69" transform="translate(328.564453 0)"/>
     <use xlink:href="#DejaVuSans-Bold-6e" transform="translate(362.841797 0)"/>
     <use xlink:href="#DejaVuSans-Bold-65" transform="translate(434.033203 0)"/>
     <use xlink:href="#DejaVuSans-Bold-72" transform="translate(501.855469 0)"/>
     <use xlink:href="#DejaVuSans-Bold-20" transform="translate(551.171875 0)"/>
     <use xlink:href="#DejaVuSans-Bold-48" transform="translate(585.986328 0)"/>
     <use xlink:href="#DejaVuSans-Bold-6f" transform="translate(669.677734 0)"/>
     <use xlink:href="#DejaVuSans-Bold-75" transform="translate(738.378906 0)"/>
     <use xlink:href="#DejaVuSans-Bold-73" transform="translate(809.570312 0)"/>
     <use xlink:href="#DejaVuSans-Bold-65" transform="translate(869.091797 0)"/>
     <use xlink:href="#DejaVuSans-Bold-20" transform="translate(936.914062 0)"/>
     <use xlink:href="#DejaVuSans-Bold-50" transform="translate(971.728516 0)"/>
     <use xlink:href="#DejaVuSans-Bold-72" transform="translate(1045.019531 0)"/>
     <use xlink:href="#DejaVuSans-Bold-6f" transform="translate(1094.335938 0)"/>
     <use xlink:href="#DejaVuSans-Bold-6a" transform="translate(1163.037109 0)"/>
     <use xlink:href="#DejaVuSans-Bold-65" transform="translate(1197.314453 0)"/>
     <use xlink:href="#DejaVuSans-Bold-63" transform="translate(1265.136719 0)"/>
     <use xlink:href="#DejaVuSans-Bold-74" transform="translate(1324.414062 0)"/>
     <use xlink:href="#DejaVuSans-Bold-20" transform="translate(1372.216797 0)"/>
     <use xlink:href="#DejaVuSans-Bold-2014" transform="translate(1407.03125 0)"/>
     <use xlink:href="#DejaVuSans-Bold-20" transform="translate(1507.03125 0)"/>
     <use xlink:href="#DejaVuSans-Bold-53" transform="translate(1541.845703 0)"/>
     <use xlink:href="#DejaVuSans-Bold-69" transform="translate(1613.867188 0)"/>
     <use xlink:href="#DejaVuSans-Bold-74" transform="translate(1648.144531 0)"/>
     <use xlink:href="#DejaVuSans-Bold-65" transform="translate(1695.947266 0)"/>
     <use xlink:href="#DejaVuSans-Bold-20" transform="translate(1763.769531 0)"/>
     <use xlink:href="#DejaVuSans-Bold-4c" transform="translate(1798.583984 0)"/>
     <use xlink:href="#DejaVuSans-Bold-61" transform="translate(1862.304688 0)"/>
     <use xlink:href="#DejaVuSans-Bold-79" transform="translate(1926.660156 0)"/>
     <use xlink:href="#DejaVuSans-Bold-6f" transform="translate(1991.845703 0)"/>
     <use xlink:href="#DejaVuSans-Bold-75" transform="translate(2060.546875 0)"/>
     <use xlink:href="#DejaVuSans-Bold-74" transform="translate(2131.738281 0)"/>
     <use xlink:href="#DejaVuSans-Bold-20" transform="translate(2179.541016 0)"/>
     <use xlink:href="#DejaVuSans-Bold-28" transform="translate(2214.355469 0)"/>
     <use xlink:href="#DejaVuSans-Bold-4e" transform="translate(2260.058594 0)"/>
     <use xlink:href="#DejaVuSans-Bold-6f" transform="translate(2343.75 0)"/>
     <use xlink:href="#DejaVuSans-Bold-74" transform="translate(2412.451172 0)"/>
     <use xlink:href="#DejaVuSans-Bold-20" transform="translate(2460.253906 0)"/>
     <use xlink:href="#DejaVuSans-Bold-74" transform="translate(2495.068359 0)"/>
     <use xlink:href="#DejaVuSans-Bold-6f" transform="translate(2542.871094 0)"/>
     <use xlink:href="#DejaVuSans-Bold-20" transform="translate(2611.572266 0)"/>
     <use xlink:href="#DejaVuSans-Bold-63" transform="translate(2646.386719 0)"/>
     <use xlink:href="#DejaVuSans-Bold-6f" transform="translate(2705.664062 0)"/>
     <use xlink:href="#DejaVuSans-Bold-6e" transform="translate(2774.365234 0)"/>
     <use xlink:href="#DejaVuSans-Bold-74" transform="translate(2845.556641 0)"/>
     <use xlink:href="#DejaVuSans-Bold-61" transform="translate(2893.359375 0)"/>
     <use xlink:href="#DejaVuSans-Bold-69" transform="translate(2960.839844 0)"/>
     <use xlink:href="#DejaVuSans-Bold-6e" transform="translate(2995.117188 0)"/>
     <use xlink:href="#DejaVuSans-Bold-65" transform="translate(3066.308594 0)"/>
     <use xlink:href="#DejaVuSans-Bold-72" transform="translate(3134.130859 0)"/>
     <use xlink:href="#DejaVuSans-Bold-20" transform="translate(3183.447266 0)"/>
     <use xlink:href="#DejaVuSans-Bold-64" transform="translate(3218.261719 0)"/>
     <use xlink:href="#DejaVuSans-Bold-65" transform="translate(3289.84375 0)"/>
     <use xlink:href="#DejaVuSans-Bold-70" transform="translate(3357.666016 0)"/>
     <use xlink:href="#DejaVuSans-Bold-74" transform="translate(3429.248047 0)"/>
     <use xlink:href="#DejaVuSans-Bold-68" transform="translate(3477.050781 0)"/>
     <use xlink:href="#DejaVuSans-Bold-3b" transform="translate(3548.242188 0)"/>
     <use xlink:href="#DejaVuSans-Bold-20" transform="translate(3588.232422 0)"/>
     <use xlink:href="#DejaVuSans-Bold-73" transform="translate(3623.046875 0)"/>
     <use xlink:href="#DejaVuSans-Bold-63" transform="translate(3682.568359 0)"/>
     <use xlink:href="#DejaVuSans-Bold-61" transform="translate(3741.845703 0)"/>
     <use xlink:href="#DejaVuSans-Bold-6c" transform="translate(3809.326172 0)"/>
     <use xlink:href="#DejaVuSans-Bold-65" transform="translate(3843.603516 0)"/>
     <use xlink:href="#DejaVuSans-Bold-64" transform="translate(3911.425781 0)"/>
     <use xlink:href="#DejaVuSans-Bold-20" transform="translate(3983.007812 0)"/>
     <use xlink:href="#DejaVuSans-Bold-74" transform="translate(4017.822266 0)"/>
     <use xlink:href="#DejaVuSans-Bold-6f" transform="translate(4065.625 0)"/>
     <use xlink:href="#DejaVuSans-Bold-20" transform="translate(4134.326172 0)"/>
     <use xlink:href="#DejaVuSans-Bold-70" transform="translate(4169.140625 0)"/>
     <use xlink:href="#DejaVuSans-Bold-6c" transform="translate(4240.722656 0)"/>
     <use xlink:href="#DejaVuSans-Bold-6f" transform="translate(4275 0)"/>
     <use xlink:href="#DejaVuSans-Bold-74" transform="translate(4343.701172 0)"/>
     <use xlink:href="#DejaVuSans-Bold-29" transform="translate(4391.503906 0)"/>
    </g>
   </g>
  </g>
 </g>
 <defs>
  <clipPath id="pd068655192">
   <rect x="62.828103" y="21.541897" width="332.459419" height="108.90912"/>
  </clipPath>
 </defs>
</svg>
